<svg width="190" height="190" viewBox="0 0 190 190" fill="none" xmlns="http://www.w3.org/2000/svg">
<path d="M140 0C167.614 9.66391e-07 190 22.3858 190 50V140C190 167.614 167.614 190 140 190H50C22.3858 190 9.66516e-07 167.614 0 140V50C9.66516e-07 22.3858 22.3858 9.66391e-07 50 0H140ZM122.704 32C107.31 32 93.7109 43.4202 91.8281 58.4043C91.7015 59.6584 91.6629 60.5623 91.6572 61.6992L91.6748 122.965C91.6748 134.716 82.7433 142.715 71.5889 142.715C60.4227 142.715 51.4248 133.922 51.4248 122.945C51.6118 110.895 61.3986 103.254 72.8086 102.921H72.8701L84.457 102.815V86.6406L72.8701 86.7266C52.0958 86.5395 35.6025 102.577 35 122.956C35 142.774 51.5248 158.929 71.5908 158.93C90.5159 158.93 106.265 144.359 107.985 126.126C108.233 119.922 108.113 111.732 108.113 111.732C108.148 108.361 108.061 109.571 108.096 102.876L122.467 102.771C133.591 102.85 133.463 86.3394 122.338 86.5664L108.085 86.6709C108.085 78.3521 108.218 70.0972 108.085 61.7734C108.095 54.5787 115.015 48.2168 122.692 48.2168C130.368 48.2168 138.489 51.9895 138.489 61.7734C138.489 63.1711 138.461 63.9841 138.383 64.502C137.525 69.0395 140.671 73.3766 145.305 74.0312C149.939 74.6781 154.195 71.3798 154.654 66.79C154.92 64.9758 154.91 63.3741 154.91 61.7744C154.91 44.5162 139.261 32.0129 122.687 32.0127L122.704 32Z" fill="#51A2DA"/>
</svg>
